<svg id="svg" version="1.1" xmlns="http://www.w3.org/2000/svg" xmlns:xlink="http://www.w3.org/1999/xlink" width="400" height="247" viewBox="0, 0, 400,247"><g id="svgg"><path id="path0" d="M0.000 82.397 L 0.000 123.533 200.000 123.533 L 400.000 123.533 400.000 82.397 L 400.000 41.260 200.000 41.260 L 0.000 41.260 0.000 82.397 " stroke="none" fill="#fcbc04" fill-rule="evenodd"></path><path id="path1" d="M0.000 185.300 L 0.000 206.053 200.000 206.053 L 400.000 206.053 400.000 185.300 L 400.000 164.546 200.000 164.546 L 0.000 164.546 0.000 185.300 " stroke="none" fill="#044bfa" fill-rule="evenodd"></path><path id="path2" d="M0.000 226.560 L 0.000 247.066 200.000 247.066 L 400.000 247.066 400.000 226.560 L 400.000 206.053 200.000 206.053 L 0.000 206.053 0.000 226.560 " stroke="none" fill="#7c048c" fill-rule="evenodd"></path><path id="path3" d="M0.000 144.040 L 0.000 164.546 200.000 164.546 L 400.000 164.546 400.000 144.040 L 400.000 123.533 200.000 123.533 L 0.000 123.533 0.000 144.040 " stroke="none" fill="#04841c" fill-rule="evenodd"></path><path id="path4" d="M0.000 20.630 L 0.000 41.260 200.000 41.260 L 400.000 41.260 400.000 20.630 L 400.000 0.000 200.000 0.000 L 0.000 0.000 0.000 20.630 " stroke="none" fill="#e40404" fill-rule="evenodd"></path></g></svg>